<mxfile host="app.diagrams.net" modified="2021-09-16T02:50:21.092Z" agent="5.0 (Windows NT 10.0; Win64; x64) AppleWebKit/537.36 (KHTML, like Gecko) Chrome/93.0.4577.63 Safari/537.36 Edg/93.0.961.47" etag="5ucJ9r_aytoDGZfp6BoV" version="15.2.7" type="github">
  <diagram id="C5RBs43oDa-KdzZeNtuy" name="Page-1">
    <mxGraphModel dx="782" dy="468" grid="1" gridSize="10" guides="1" tooltips="1" connect="1" arrows="1" fold="1" page="1" pageScale="1" pageWidth="827" pageHeight="1169" math="0" shadow="0">
      <root>
        <mxCell id="WIyWlLk6GJQsqaUBKTNV-0" />
        <mxCell id="WIyWlLk6GJQsqaUBKTNV-1" parent="WIyWlLk6GJQsqaUBKTNV-0" />
        <mxCell id="-_ZYs3OJcZVKZoG_gJD5-4" style="edgeStyle=orthogonalEdgeStyle;rounded=0;orthogonalLoop=1;jettySize=auto;html=1;entryX=0.5;entryY=0;entryDx=0;entryDy=0;" edge="1" parent="WIyWlLk6GJQsqaUBKTNV-1" source="-_ZYs3OJcZVKZoG_gJD5-0" target="-_ZYs3OJcZVKZoG_gJD5-1">
          <mxGeometry relative="1" as="geometry" />
        </mxCell>
        <mxCell id="-_ZYs3OJcZVKZoG_gJD5-0" value="Received new authentication code" style="ellipse;whiteSpace=wrap;html=1;" vertex="1" parent="WIyWlLk6GJQsqaUBKTNV-1">
          <mxGeometry x="294" y="10" width="120" height="80" as="geometry" />
        </mxCell>
        <mxCell id="-_ZYs3OJcZVKZoG_gJD5-5" value="Yes" style="edgeStyle=orthogonalEdgeStyle;rounded=0;orthogonalLoop=1;jettySize=auto;html=1;entryX=0.5;entryY=0;entryDx=0;entryDy=0;" edge="1" parent="WIyWlLk6GJQsqaUBKTNV-1" source="-_ZYs3OJcZVKZoG_gJD5-1" target="-_ZYs3OJcZVKZoG_gJD5-2">
          <mxGeometry relative="1" as="geometry" />
        </mxCell>
        <mxCell id="-_ZYs3OJcZVKZoG_gJD5-6" style="edgeStyle=orthogonalEdgeStyle;rounded=0;orthogonalLoop=1;jettySize=auto;html=1;exitX=1;exitY=0.5;exitDx=0;exitDy=0;" edge="1" parent="WIyWlLk6GJQsqaUBKTNV-1" source="-_ZYs3OJcZVKZoG_gJD5-1">
          <mxGeometry relative="1" as="geometry">
            <mxPoint x="354" y="350" as="targetPoint" />
            <Array as="points">
              <mxPoint x="484" y="170" />
              <mxPoint x="484" y="350" />
            </Array>
          </mxGeometry>
        </mxCell>
        <mxCell id="-_ZYs3OJcZVKZoG_gJD5-8" value="No" style="edgeLabel;html=1;align=center;verticalAlign=middle;resizable=0;points=[];" vertex="1" connectable="0" parent="-_ZYs3OJcZVKZoG_gJD5-6">
          <mxGeometry x="-0.5071" y="1" relative="1" as="geometry">
            <mxPoint as="offset" />
          </mxGeometry>
        </mxCell>
        <mxCell id="-_ZYs3OJcZVKZoG_gJD5-1" value="Check if the current device already bound to an authentication code" style="rhombus;whiteSpace=wrap;html=1;" vertex="1" parent="WIyWlLk6GJQsqaUBKTNV-1">
          <mxGeometry x="244" y="130" width="220" height="80" as="geometry" />
        </mxCell>
        <mxCell id="-_ZYs3OJcZVKZoG_gJD5-7" style="edgeStyle=orthogonalEdgeStyle;rounded=0;orthogonalLoop=1;jettySize=auto;html=1;exitX=0.5;exitY=1;exitDx=0;exitDy=0;entryX=0.5;entryY=0;entryDx=0;entryDy=0;" edge="1" parent="WIyWlLk6GJQsqaUBKTNV-1" source="-_ZYs3OJcZVKZoG_gJD5-2" target="-_ZYs3OJcZVKZoG_gJD5-3">
          <mxGeometry relative="1" as="geometry" />
        </mxCell>
        <mxCell id="-_ZYs3OJcZVKZoG_gJD5-2" value="unbind the old code" style="rounded=0;whiteSpace=wrap;html=1;" vertex="1" parent="WIyWlLk6GJQsqaUBKTNV-1">
          <mxGeometry x="294" y="260" width="120" height="60" as="geometry" />
        </mxCell>
        <mxCell id="-_ZYs3OJcZVKZoG_gJD5-3" value="bind the new code" style="rounded=0;whiteSpace=wrap;html=1;" vertex="1" parent="WIyWlLk6GJQsqaUBKTNV-1">
          <mxGeometry x="294" y="370" width="120" height="60" as="geometry" />
        </mxCell>
        <mxCell id="-_ZYs3OJcZVKZoG_gJD5-9" value="Text" style="text;html=1;strokeColor=none;fillColor=none;align=center;verticalAlign=middle;whiteSpace=wrap;rounded=0;" vertex="1" parent="WIyWlLk6GJQsqaUBKTNV-1">
          <mxGeometry x="380" y="210" width="40" height="20" as="geometry" />
        </mxCell>
        <mxCell id="-_ZYs3OJcZVKZoG_gJD5-10" value="&lt;h1&gt;Binding&lt;/h1&gt;&lt;p&gt;1 vehicle 1 authentication code&lt;/p&gt;" style="text;html=1;strokeColor=none;fillColor=none;spacing=5;spacingTop=-20;whiteSpace=wrap;overflow=hidden;rounded=0;" vertex="1" parent="WIyWlLk6GJQsqaUBKTNV-1">
          <mxGeometry x="20" y="30" width="190" height="80" as="geometry" />
        </mxCell>
      </root>
    </mxGraphModel>
  </diagram>
</mxfile>
